<?xml version="1.0" standalone="no"?>
<!DOCTYPE svg PUBLIC "-//W3C//DTD SVG 20010904//EN"
 "http://www.w3.org/TR/2001/REC-SVG-20010904/DTD/svg10.dtd">
<svg version="1.0" xmlns="http://www.w3.org/2000/svg"
 width="700.000000pt" height="700.000000pt" viewBox="0 0 700.000000 700.000000"
 preserveAspectRatio="xMidYMid meet">
<metadata>
Created by potrace 1.14, written by Peter Selinger 2001-2017
</metadata>
<g transform="translate(0.000000,700.000000) scale(0.100000,-0.100000)"
fill="#000000" stroke="none">
<path d="M615 6989 c-73 -15 -80 -17 -136 -38 -171 -65 -318 -199 -404 -371
-34 -68 -46 -104 -63 -190 -4 -19 -7 -1326 -7 -2905 l0 -2870 23 -75 c87 -277
292 -465 571 -525 56 -12 492 -14 2931 -12 l2865 2 90 32 c123 43 206 94 295
183 79 79 126 150 166 248 57 141 54 -51 51 3062 l-2 2865 -23 70 c-92 273
-266 435 -563 523 -35 10 -5746 12 -5794 1z m1658 -1569 c3 -5 50 -129 240
-640 211 -568 259 -697 267 -715 5 -11 32 -83 60 -160 28 -77 55 -149 60 -160
10 -24 62 -164 125 -335 25 -69 50 -134 54 -145 10 -24 26 -68 131 -350 45
-121 99 -266 121 -323 21 -57 39 -109 39 -117 0 -7 -20 -66 -44 -132 -25 -65
-99 -264 -166 -443 l-122 -326 -388 0 -389 0 -30 75 c-16 42 -72 191 -125 331
-52 140 -151 404 -219 585 -69 182 -191 506 -271 720 -80 215 -150 399 -155
410 -5 11 -17 43 -26 70 -10 28 -23 64 -30 80 -8 17 -43 111 -80 210 -78 209
-113 302 -125 330 -5 11 -27 72 -50 135 -23 63 -46 124 -51 135 -4 11 -63 166
-129 345 -67 179 -125 334 -130 345 -17 37 -29 73 -25 77 6 6 1453 4 1458 -2z
m2025 -340 c71 -190 261 -698 422 -1130 161 -432 301 -804 311 -827 11 -24 19
-46 19 -50 0 -4 10 -32 21 -63 35 -89 36 -92 59 -155 12 -33 26 -69 30 -80 5
-11 27 -72 50 -135 23 -63 46 -125 52 -137 13 -26 20 -4 -136 -423 -120 -324
-139 -372 -162 -427 -8 -17 -14 -38 -14 -47 0 -8 -8 -19 -17 -24 -10 -5 -188
-9 -397 -8 l-378 1 -24 60 c-13 33 -89 236 -169 450 -169 451 -193 513 -205
540 -5 11 -27 72 -50 135 -23 63 -46 124 -50 135 -12 26 -377 998 -402 1070
-6 17 -15 34 -19 40 -5 5 -9 18 -9 30 0 12 -4 25 -9 30 -4 6 -15 30 -24 55 -8
25 -118 320 -245 655 -126 336 -232 619 -236 630 l-6 21 729 0 730 0 129 -346z
m1892 345 c0 -1 -48 -133 -53 -145 -3 -8 -56 -150 -117 -315 -61 -165 -118
-316 -125 -335 -8 -19 -91 -242 -185 -495 -94 -253 -189 -505 -210 -560 -43
-113 -33 -117 -86 30 -14 39 -30 79 -34 90 -5 11 -91 238 -190 505 -100 267
-185 494 -190 505 -5 11 -23 58 -40 105 -17 47 -36 96 -41 109 -14 34 -189
501 -189 504 0 2 329 3 730 3 402 0 730 0 730 -1z"/>
</g>
</svg>
